<svg width="54" height="54" viewBox="0 0 54 54" fill="white" xmlns="http://www.w3.org/2000/svg">
<path d="M33.331 27.1301L52.001 8.46006C52.4173 8.05611 52.749 7.57344 52.977 7.0401C53.2049 6.50677 53.3246 5.93344 53.3289 5.35345C53.3333 4.77345 53.2223 4.19838 53.0024 3.66168C52.7824 3.12499 52.458 2.63738 52.0479 2.22721C51.6378 1.81705 51.1502 1.49253 50.6136 1.27252C50.0769 1.05251 49.5019 0.941409 48.9219 0.945675C48.3419 0.949941 47.7685 1.06949 47.2352 1.29737C46.7018 1.52525 46.2191 1.85691 45.815 2.27306L27.145 20.9431L8.47505 2.27306C8.06994 1.86166 7.58742 1.53451 7.05528 1.31047C6.52314 1.08643 5.95192 0.969944 5.37455 0.967715C4.79718 0.965487 4.22508 1.07756 3.69123 1.29749C3.15738 1.51741 2.67234 1.84082 2.26407 2.24909C1.85581 2.65736 1.53239 3.1424 1.31247 3.67625C1.09255 4.2101 0.98047 4.7822 0.982699 5.35957C0.984927 5.93694 1.10142 6.50816 1.32545 7.0403C1.54949 7.57243 1.87664 8.05496 2.28805 8.46006L20.958 27.1301L2.28805 45.8001C1.47804 46.6227 1.026 47.7321 1.03046 48.8866C1.03491 50.041 1.4955 51.1469 2.31183 51.9633C3.12817 52.7796 4.23408 53.2402 5.38854 53.2447C6.543 53.2491 7.65243 52.7971 8.47505 51.9871L27.145 33.3171L45.815 51.9871C46.6377 52.7971 47.7471 53.2491 48.9016 53.2447C50.056 53.2402 51.1619 52.7796 51.9783 51.9633C52.7946 51.1469 53.2552 50.041 53.2596 48.8866C53.2641 47.7321 52.8121 46.6227 52.002 45.8001L33.331 27.1301Z" fill="#fff"/>
</svg>
