<svg width="208" height="26" viewBox="0 0 208 26" fill="none" xmlns="http://www.w3.org/2000/svg">
<path d="M207.796 4.21457V7.43148H204.763V25.5724H200.894V7.41112H197.84V4.21457H207.796ZM28.7893 6.88175C29.2169 7.85904 29.4205 9.12138 29.4205 10.628V19.0368C29.4205 20.5435 29.2169 21.8262 28.7893 22.8645C28.3618 23.9029 27.7306 24.6766 26.8755 25.206C26.0204 25.7353 24.9616 26 23.6789 26C22.4573 26 21.419 25.7353 20.5638 25.206C19.7087 24.6766 19.0572 23.9029 18.6092 22.8849C18.1613 21.8669 17.9374 20.5842 17.9374 19.0368V10.628C17.9374 9.14174 18.1613 7.89977 18.6092 6.90211C19.0572 5.90446 19.7087 5.13078 20.5842 4.60141C21.4597 4.05168 22.498 3.787 23.6586 3.787C24.9413 3.787 26 4.05168 26.8551 4.60141C27.7306 5.13078 28.3618 5.8841 28.7893 6.88175ZM25.6335 9.97651C25.6335 9.32498 25.5724 8.79561 25.4096 8.36805C25.267 7.94049 25.0634 7.61472 24.7784 7.39076C24.4933 7.1668 24.1269 7.04464 23.6789 7.04464C23.2717 7.04464 22.9256 7.1668 22.6609 7.39076C22.3962 7.61472 22.1926 7.94049 22.0298 8.36805C21.8669 8.79561 21.7854 9.32498 21.7854 9.97651V19.7087C21.7854 20.4009 21.8669 20.971 22.0298 21.3782C22.1926 21.8058 22.3962 22.1112 22.6609 22.3148C22.9256 22.5184 23.2514 22.6202 23.6789 22.6202C24.1269 22.6202 24.4933 22.5184 24.758 22.3148C25.0227 22.1112 25.2263 21.8058 25.3892 21.3782C25.5521 20.9507 25.6335 20.4009 25.6335 19.7087V9.97651ZM187.314 25.5521H196.15V22.1926H191.182V16.1457H195.682V12.9695H191.182V7.45184H196.15V4.21457H187.314V25.5521ZM38.9898 14.5983L38.9695 16.3696L35.3453 4.21457H31.2733V25.5521H34.9789V13.5803L38.5826 25.5724H42.6547V4.21457H38.9491L38.9898 14.5983ZM104.366 6.37275C104.794 7.14644 104.998 8.12373 104.998 9.32498V13.8042C104.998 15.0258 104.794 16.0439 104.387 16.8379C103.98 17.6319 103.41 18.202 102.656 18.5482C101.903 18.8943 101.007 19.0775 99.9483 19.0775H98.0345V25.5724H94.2067V4.21457H99.8262C100.885 4.21457 101.801 4.37745 102.575 4.72357C103.348 5.04933 103.939 5.59906 104.366 6.37275ZM101.129 9.2639C101.129 8.71417 100.987 8.26625 100.702 7.94049C100.417 7.59436 99.928 7.43148 99.2561 7.43148H98.0345V15.7588H99.2561C99.928 15.7588 100.417 15.5959 100.702 15.2702C100.987 14.9444 101.129 14.4761 101.129 13.8449V9.2639ZM44.6092 25.5521H53.4456V22.1926H48.4777V16.1457H52.9773V12.9695H48.4777V7.45184H53.4456V4.21457H44.6092V25.5521ZM106.85 25.5521H115.687V22.1926H110.719V16.1457H115.218V12.9695H110.719V7.45184H115.687V4.21457H106.85V25.5521ZM186.092 4.21457H181.817L178.03 14.2114V4.25529H174.243V25.5724H178.03V20.1973L179.72 17.5912L182.224 25.5724H186.479L182.224 13.4785L186.092 4.21457ZM60.4902 15.1276L58.6374 4.21457H54.6672L58.556 19.6883V25.5724H62.3837V19.6883L66.354 4.21457H62.4652L60.4902 15.1276ZM156.855 4.25529L160.276 25.5724H156.387L155.898 21.8872H152.03L151.521 25.5724H147.693L151.073 4.25529H156.855ZM155.45 18.5889L154.045 8.10337H153.903L152.478 18.5889H155.45ZM88.4855 20.2991C88.4855 20.8285 88.4244 21.2561 88.3023 21.6022C88.1801 21.9483 87.9969 22.1926 87.7525 22.3759C87.5082 22.5591 87.2028 22.6406 86.8363 22.6406C86.3477 22.6406 86.0016 22.5591 85.7776 22.3759C85.5536 22.1926 85.3704 21.928 85.2482 21.6022C85.1261 21.2561 85.065 20.8285 85.065 20.2991V4.21457H81.2169V19.8716C81.2169 21.2357 81.4205 22.3759 81.8277 23.2717C82.2349 24.1676 82.8457 24.8598 83.6601 25.3078C84.4745 25.7557 85.5333 26 86.8363 26C88.0579 26 89.076 25.7557 89.8904 25.2874C90.7048 24.7987 91.2952 24.1269 91.7024 23.231C92.1096 22.3352 92.2929 21.2153 92.2929 19.8716V4.21457H88.5059L88.4855 20.2991ZM172.288 9.03994V12.3179C172.288 13.397 172.044 14.2929 171.576 15.0258C171.27 15.4941 170.904 15.881 170.435 16.2067H170.415C170.558 16.3085 170.72 16.4103 170.843 16.5325C171.8 17.3469 172.268 18.5482 172.268 20.1566V25.5724H168.399V18.8536C168.399 18.3649 168.257 17.9781 167.992 17.6727C167.727 17.3673 167.3 17.2247 166.689 17.2247H165.325V25.5521H161.497V4.21457H166.974C168.603 4.21457 169.906 4.62177 170.843 5.41582C171.82 6.23023 172.288 7.43148 172.288 9.03994ZM166.73 14.1707C167.341 14.1707 167.768 14.0282 168.033 13.7228C168.298 13.4174 168.44 13.0102 168.44 12.4808V9.03994C168.44 8.55129 168.298 8.16445 168.033 7.85904C167.768 7.55364 167.341 7.41112 166.73 7.41112H165.325V14.1504C165.325 14.1707 166.73 14.1707 166.73 14.1707ZM128.432 9.03994V12.3179C128.432 13.397 128.188 14.2929 127.72 15.0258C127.414 15.4941 127.048 15.881 126.579 16.2067H126.559C126.702 16.3085 126.865 16.4103 126.987 16.5325C127.944 17.3469 128.412 18.5482 128.412 20.1566V25.5724H124.543V18.8536C124.543 18.3649 124.401 17.9781 124.136 17.6727C123.872 17.3673 123.444 17.2247 122.833 17.2247H121.428V25.5521H117.601V4.21457H123.078C124.706 4.21457 126.009 4.62177 126.946 5.41582C127.944 6.23023 128.432 7.43148 128.432 9.03994ZM122.874 14.1707C123.485 14.1707 123.912 14.0282 124.177 13.7228C124.442 13.4174 124.584 13.0102 124.584 12.4808V9.03994C124.584 8.55129 124.442 8.16445 124.177 7.85904C123.912 7.55364 123.485 7.41112 122.874 7.41112H121.469V14.1504C121.469 14.1707 122.874 14.1707 122.874 14.1707ZM8.04229 12.7251L5.06969 0.386844H0V25.5521H3.92952L3.60376 7.75724L8.04229 23.74L12.4808 7.75724L12.1551 25.5521H16.0846V0.386844H11.0149L8.04229 12.7251ZM77.1652 12.4808C76.4526 11.9107 72.8896 10.0783 72.5842 9.87471C72.2788 9.6711 72.0345 9.38606 71.8512 9.03994C71.6476 8.69381 71.5458 8.24589 71.5255 7.69616V5.15114C71.5255 4.84573 71.6069 4.56069 71.7494 4.29601C71.8919 4.03132 72.0955 3.84808 72.3399 3.6852C72.5842 3.52232 72.9303 3.46124 73.3579 3.46124C74.1316 3.46124 74.6609 3.6852 74.9867 4.13312C75.2921 4.58105 75.455 5.19186 75.455 5.94518V8.22553H79.2013V5.94518C79.2013 4.07204 78.6922 2.60611 77.6946 1.56774C76.6969 0.529366 75.2717 0 73.3579 0C72.177 0 71.159 0.203602 70.3038 0.590446C69.4487 0.977291 68.7768 1.5881 68.3085 2.40251C67.8402 3.21691 67.5959 4.13312 67.5959 5.15114V7.69616C67.5959 8.77525 67.7385 9.6711 68.0439 10.3837C68.3493 11.0963 68.7768 11.6868 69.3469 12.1958C69.917 12.6844 73.7854 14.7204 74.1723 14.9648C74.5591 15.2091 74.8645 15.5552 75.0681 15.9624C75.2717 16.3696 75.3735 16.9193 75.3735 17.632V20.4213C75.3735 21.0525 75.2107 21.5615 74.8849 21.9483C74.5591 22.3352 74.0705 22.5388 73.419 22.5388C72.8692 22.5388 72.4213 22.4166 72.0955 22.1723C71.7698 21.928 71.5254 21.6022 71.3829 21.195C71.2404 20.7878 71.159 20.3602 71.159 19.8919V17.3469H67.2905V19.8919C67.2905 21.2153 67.5145 22.3352 67.9828 23.2514C68.4307 24.1676 69.1229 24.8395 70.0392 25.3078C70.9554 25.7557 72.0752 26 73.3986 26C74.5184 26 75.5568 25.776 76.4933 25.3078C77.4299 24.8395 78.1222 24.2083 78.5904 23.3939C79.0384 22.5795 79.2827 21.6226 79.2827 20.5027V17.5301C79.2827 16.3696 79.0995 15.3923 78.733 14.5779C78.4072 13.7635 77.8778 13.0713 77.1652 12.4808ZM138.429 12.7251L135.457 0.386844H130.387V25.5521H134.316L133.991 7.75724L138.429 23.74L142.868 7.75724L142.542 25.5521H146.471V0.386844H141.402L138.429 12.7251Z" fill="white"/>
</svg>
